# 3ds Max Wavefront OBJ Exporter v0.97b - (c)2007 guruware
# File Created: 31.10.2015 03:01:36

mtllib cube.mtl

#
# object Box001
#

v  9.9998 -0.0000 -20.0000
v  9.9998 -0.0000 0.0000
v  -10.0002 -0.0000 0.0000
v  -10.0002 -0.0000 -20.0000
v  9.9998 20.0000 -20.0000
v  -10.0002 20.0000 -20.0000
v  -10.0002 20.0000 0.0000
v  9.9998 20.0000 0.0000
# 8 vertices

vn 0.0000 -1.0000 -0.0000
vn 0.0000 1.0000 -0.0000
vn 0.0000 0.0000 1.0000
vn 1.0000 0.0000 -0.0000
vn 0.0000 0.0000 -1.0000
vn -1.0000 0.0000 -0.0000
# 6 vertex normals

vt -19.0000 20.0000 0.0000
vt -19.0000 0.0000 0.0000
vt 1.0000 0.0000 0.0000
vt 1.0000 20.0000 0.0000
vt 20.0000 20.0000 0.0000
vt 0.0000 20.0000 0.0000
vt 0.0000 0.0000 0.0000
vt 20.0000 0.0000 0.0000
# 8 texture coords

g Box001
usemtl wire_088144225
s 2
f 1/1/1 2/2/1 3/3/1 
f 3/3/1 4/4/1 1/1/1 
s 4
f 5/5/2 6/6/2 7/7/2 
f 7/7/2 8/8/2 5/5/2 
s 8
f 8/5/3 7/6/3 3/7/3 
f 3/7/3 2/8/3 8/5/3 
s 16
f 5/5/4 8/6/4 2/7/4 
f 2/7/4 1/8/4 5/5/4 
s 32
f 6/5/5 5/6/5 1/7/5 
f 1/7/5 4/8/5 6/5/5 
s 64
f 7/5/6 6/6/6 4/7/6 
f 4/7/6 3/8/6 7/5/6 
# 12 faces

